<svg width="664" height="664" viewBox="-76 -76 664 664" fill="none" xmlns="http://www.w3.org/2000/svg">
<path d="M68.3939 168.189L68.3751 168.72C56.7497 176.365 28.1454 195.529 25.0885 209.716C21.192 227.793 49.1638 244.048 64.0193 248.609C63.4697 259.384 63.0556 277.148 64.968 287.805C51.0574 290.624 39.5035 295.187 31.4207 307.82C14.5473 334.193 22.5963 369.062 49.2014 385.517C56.7911 390.265 61.3426 391.191 69.768 393.42C69.768 444.235 139.294 508.235 239.059 510.118C338.824 512 421.921 443.237 431.059 393.412C502.84 388.804 506.628 299.158 448.185 287.251C451.509 272.03 452.36 256.371 450.696 240.88C450.018 234.704 445.41 227.947 447.27 223.786C455.074 206.312 451.95 180.459 447.338 163.343C434.677 116.336 406.532 90.6687 371.302 59.6648C356.703 46.8178 347.121 34.0163 328.976 24.1441C289.145 2.47405 245.056 -1.48981 201.947 10.2346C154.414 23.4762 114.045 54.9714 89.6344 97.8536C77.3953 119.356 69.3652 143.371 68.3939 168.189Z" fill="#0F1C41"/>
<path d="M259.765 350.118C257.882 363.294 223.153 378.787 212.002 360.205C209.292 355.728 208.558 350.33 209.981 345.293C213.806 331.236 228.578 323.482 242.677 325.848C253.933 327.737 261.647 336.941 259.765 350.118Z" fill="#F88428"/>
<path d="M382.931 206.464C384.968 210.523 381.768 230.997 384.102 236.757C396.808 268.104 407.744 293.006 405.467 328.039C405.29 330.786 407.202 334.861 409.943 336.37C427.283 345.914 423.692 308.011 439.861 306.756C465.269 304.06 475.641 336.713 461.681 354.527C452.695 366.002 445.772 368.185 432.102 370.493C429.757 367.38 425.228 359.685 421.324 360.34C412.955 369.443 408.418 411.819 391.096 429.908C367.996 454.032 347.117 468.88 315.445 480.234C268.04 497.225 218.327 500.756 171.867 479.057C148.334 468.854 124.842 454.887 107.713 435.363C83.8557 408.536 86.991 374.047 85.9783 341.249C85.0635 311.741 90.2667 287.11 92.3787 258.482C114.026 255.485 119.346 254.017 139.765 246.468C138.764 248.746 137.8 251.039 136.866 253.346C135.545 256.685 135.285 257.723 136.588 260.751L138.308 261.038C146.124 257.575 175.838 247.787 178.428 245.364L178.493 243.202C177.1 239.807 173.666 237.171 170.873 234.618C178.805 234.647 184.983 234.719 192.862 233.878L192.592 247.311C219.935 247.071 255.921 232.44 278.171 217.064L271.684 236.376C295.413 231.261 319.691 227.567 342.942 221.005C355.833 217.366 369.021 211.486 381.403 206.187L382.931 206.464ZM301.832 376.713C278.547 394.038 260.413 404.775 229.655 400.242C217.559 398.45 206.039 393.884 195.995 386.9C191.884 384.005 186.899 378.215 182.043 378.475C175.609 387.615 190.642 423.64 195.562 433.259C204.925 447.941 217.872 460.85 235.494 464.675C277.218 473.729 299.226 429.799 305.254 395.759C306.413 389.201 309.237 379.804 301.832 376.713ZM271.609 339.789C255.786 289.622 182.792 315.676 194.737 361.579C202.557 391.614 282.353 384 271.609 339.789ZM323.471 280.553C315.983 284.478 311.809 289.404 309.663 297.735C305.522 313.818 312.155 350.775 325.489 350.446C338.823 350.117 346.372 284.804 323.471 280.553ZM158.178 280.733C132.861 291.75 139.11 347.683 158.893 349.246C166.103 346.02 170.896 341.404 173.196 333.701C178.361 316.409 180.074 286.409 158.178 280.733ZM343.688 262.393C352.9 256.917 336.038 232.49 314.049 233.772C306.278 238.797 306.041 242.327 303.594 251.289C321.728 251.403 325.162 250.91 340.149 261.352L343.688 262.393Z" fill="#FCC58F"/>
<path d="M232.975 437.332C246.822 435.984 255.835 437.479 269.026 441.236C264.588 446.375 263.473 447.708 258.026 451.841C251.005 453.999 223.436 453.942 226.199 442.17C228.364 439.211 229.73 438.827 232.975 437.332Z" fill="#E04A6E"/>
<path d="M119.36 355.277C126.82 353.057 133.485 354.181 140.405 357.536C152.798 363.54 146.245 376.615 137.412 378.353C129.95 379.821 122.561 380.55 116.706 376.471C109.993 371.793 106.075 359.23 119.36 355.277Z" fill="#F88428"/>
<path d="M355.765 353.882C370.824 353.882 383.075 379.154 360.949 378.753C338.824 378.353 332.853 368.342 334.897 362.994C336.941 357.647 340.706 353.882 355.765 353.882Z" fill="#F88428"/>
<path d="M89.0997 152.275C98.6357 121.566 105.695 102.135 127.311 77.2893C154.094 46.5083 197.561 25.1854 238.246 22.7786C264.294 21.2377 299.118 29.1564 321.777 42.6563C329.051 46.9891 338.056 55.2078 344.584 60.9855C344.426 62.0784 344.223 63.4853 343.978 65.2057C348.029 76.4035 353.657 86.7079 356.778 98.2858C360.057 110.451 360.328 123.204 358.961 135.672C358.517 139.733 357.113 146.317 353.578 148.8C331.931 137.956 297.043 123.309 272.93 123.096C281.529 114.918 288.166 107.384 289.22 95.0328C290.459 81.9801 286.348 68.984 277.828 59.0173C257.781 35.2842 227.957 36.8142 205.753 55.4115C186.858 71.2406 187.2 102.518 203.453 120.116C178.741 121.775 151.752 127.447 128.742 136.741C117.644 141.225 99.9346 149.561 89.0997 152.275Z" fill="#8DB7D5"/>
<path d="M215.963 135.277C268.149 129.918 349.802 155.829 387.686 191.482C373.324 188.181 357.237 186.536 342.382 183.3C310.442 176.343 274.124 167.503 241.713 164.129C233.435 162.617 219.087 162.461 210.549 162.202C158.645 160.621 113.905 173.945 65.7472 191.06C113.811 154.615 155.219 139.779 215.963 135.277Z" fill="#346696"/>
<path d="M344.584 60.9855C382.532 93.6552 427.272 132.896 431.5 186.19C431.921 191.535 433.284 205.359 430.295 209.175C418.843 203.351 401.047 176.297 385.525 168.839C384.825 168.504 352.592 147.761 353.578 148.8C357.113 146.317 358.517 139.733 358.961 135.672C360.328 123.204 360.057 110.451 356.778 98.2858C353.657 86.7078 338.824 65.8823 344.584 60.9855Z" fill="#588CB5"/>
<path d="M67.7048 306.415C70.2159 309.199 69.7152 364.109 69.8093 370.599C62.6451 368.363 59.2794 366.251 53.2258 362.095C36.4653 347.559 37.5006 322.281 56.5726 310.116C59.5768 308.201 64.2338 307.25 67.7048 306.415Z" fill="#FCC58F"/>
<path d="M218.353 65.8824C218.353 65.8824 244.706 37.6471 272.746 67.4902L242.824 80.9412L218.353 65.8824Z" fill="#FEFDFD"/>
<path d="M242.824 94.1176L264.607 111.245C242.824 128 214.588 111.245 214.588 111.245L242.824 94.1176Z" fill="#FDC005"/>
<path d="M252.235 88.4706L276.706 77.1765C276.706 77.1765 286.118 92.2353 272.941 103.529L252.235 88.4706Z" fill="#FEFDFD"/>
<path d="M208.941 101.647C208.941 101.647 201.412 86.5882 211.283 74.8412L233.412 88.4706L208.941 101.647Z" fill="#FEFDFD"/>
</svg>
