<?xml version="1.0" encoding="utf-8" ?><svg xmlns="http://www.w3.org/2000/svg" xmlns:xlink="http://www.w3.org/1999/xlink" width="322" height="303" viewBox="0 0 322 303"><path fill="#FEFDFD" d="M113.029 47.5923C114.543 43.8828 115.655 40.2523 117.51 36.6689C124.097 23.946 132.243 17.009 145.013 11.3106C165.673 2.09114 188.238 6.04699 203.72 22.7616C204.819 23.8252 206.145 24.7916 207.225 25.8602C211.939 30.524 216.782 35.4741 220.606 40.9037C223.144 44.5075 224.55 49.1859 226.452 53.1072C232.174 54.3736 248.355 68.6747 252.838 73.5121C258.205 79.2648 263.058 85.4771 267.34 92.0774C272.769 100.592 280.632 117.352 282.744 127.075L282.983 127.18C287.247 129.015 291 128.935 293.05 133.881C295.674 140.208 295.039 162.536 294.399 169.98C293.833 176.555 292.644 183.058 292.009 189.609C298.857 189.374 304.202 190.418 309.488 195.191C314.407 199.632 316.146 204.755 316.548 211.181C316.714 213.833 316.105 216.626 316.149 219.287C316.817 229.539 316.668 239.667 316.697 249.942C316.725 259.422 317.736 266.468 310.636 273.901C302.414 282.509 289.714 282.577 280.525 275.437C277.842 276.75 274.786 278.378 271.953 279.245C259.734 282.985 243.896 281.151 234.621 271.697C224.515 280.718 217.811 281.254 204.673 280.403C203.649 280.337 201.307 280.106 200.355 280.146C197.354 280.272 194.47 280.536 191.445 280.504C189.483 280.483 186.433 279.625 184.756 279.781C180.053 280.218 175.161 280.912 170.413 280.414C166.895 280.044 163.153 278.537 159.981 277.059C159.088 276.643 156.105 274.367 155.607 274.471C153.774 274.855 150.527 277.147 148.749 277.904C146.807 278.732 143.82 279.955 141.89 280.217C133.48 281.359 125.132 281.119 117.178 277.908C115.986 277.427 113.147 275.422 112.23 275.49C109.867 275.665 106.127 278.035 103.817 278.783C90.0552 283.238 77.9159 280.703 66.5436 272.47C62.9757 275.144 57.2208 279.019 52.9847 279.715C43.646 281.249 47.5755 279.735 43.3624 286.597C36.1981 298.267 18.1016 298.659 10.0123 287.748C4.10379 280.205 5.71504 271.093 5.42367 262.164C5.35688 259.966 5.4295 257.606 5.4268 255.356C5.38912 247.885 5.49269 240.414 5.73744 232.947C6.02292 223.863 5.42309 216.986 13.6308 210.637C20.9684 204.962 28.6826 208.113 36.708 206.588C42.9969 205.392 46.4278 206.73 52.3056 206.862C52.0671 205.328 50.8209 202.056 50.264 200.481C48.7823 196.29 47.3782 192.608 46.2949 188.293C40.6794 165.641 41.5771 141.864 48.8845 119.7C56.8433 95.9159 72.8746 73.1484 93.4618 58.6711C98.0889 55.4169 102.939 52.4929 107.978 49.9206C109.759 49.0183 111.354 48.4263 113.029 47.5923ZM158.293 41.1933C157.699 40.5504 157.142 39.7596 156.348 39.5647C156.092 40.3352 157.051 41.1885 157.576 41.7391L158.293 41.1933Z"/><path fill="#0F1C41" d="M118.975 56.5331L118.98 56.3921C119.238 49.7999 121.371 43.4209 124.622 37.7093C131.106 26.3187 141.829 17.9528 154.455 14.4355C165.906 11.3212 177.617 12.3741 188.197 18.1302C193.017 20.7525 195.562 24.1529 199.44 27.5654C208.798 35.8008 216.274 42.6188 219.637 55.1049C220.862 59.6514 221.692 66.5185 219.619 71.1602C219.125 72.2654 220.349 74.0602 220.529 75.7007C220.971 79.8156 220.745 83.9749 219.862 88.0179C235.386 91.1809 234.307 114.758 215.24 115.982C211.224 128.286 207.269 132.949 196.019 140.036C199.102 141.659 202.518 142.916 205.783 144.146C205.701 140.865 205.858 139.247 206.946 136.178C209.919 134.821 212.696 134.483 215.899 134.021C220.803 133.845 225.874 132.661 230.78 132.667C243.599 132.682 257.812 133.758 270.61 133.085C275.336 133.443 280.481 133.032 285.015 133.388C286.973 134.634 287.836 135.609 288.358 137.912C291.062 149.859 287.693 189.375 283.892 200.387C288.56 196.723 291.034 194.465 297.868 195.258C301.79 195.729 305.356 197.762 307.757 200.898C310.443 204.393 311.635 208.808 311.073 213.179C310.754 215.54 310.144 217.116 309.219 219.262C312.06 226.462 311.016 236.351 311.012 244.138C311.009 249.902 311.77 261.028 309.667 265.936C307.981 269.872 304.789 272.969 300.803 274.534C296.986 276.011 292.736 275.898 289.002 274.221C286.166 272.94 283.304 270.708 281.399 268.227C273.268 273.401 268.912 276.184 258.916 275.996C247.466 275.782 242.798 271.308 234.465 264.792C232.028 266.954 229.689 269.102 227.029 270.994C219.542 276.319 209.811 277.065 201.331 273.769C194.748 275.802 191.755 276.44 185.234 273.347C173.324 277.474 164.36 275.783 155.671 266.503C153.916 267.983 151.597 270.434 149.804 271.587C138.333 278.962 121.828 276.616 111.583 268.124C100.897 277.651 84.7467 278.531 73.0105 270.41C70.8796 268.936 69.1304 266.856 66.8757 265.454L66.6453 265.598C64.9025 266.707 62.6975 268.788 60.9671 270.103C54.2754 275.189 49.471 275.784 41.4404 275.775C40.1717 281.159 38.9819 285.571 33.8339 288.757C30.5993 290.775 26.6826 291.39 22.9854 290.459C18.8644 289.413 15.3337 286.76 13.1812 283.094C10.4381 278.506 10.972 273.428 10.9795 268.281L11.0056 254.861L11.0476 238.202C11.0602 229.905 9.71812 219.179 18.5156 214.339C23.4868 211.604 27.666 212.218 32.8896 213.734C45.2878 209.017 57.7425 212.146 66.2012 222.483C73.4016 215.122 79.8138 211.867 90.3911 211.484C98.2883 211.198 107.362 215.012 113.037 220.538L113.131 220.632C123.945 209.468 136.966 209.621 150.492 215.801C152.26 210.009 153.04 205.47 159.061 202.205C162.702 200.24 166.981 199.821 170.934 201.044C174.222 202.066 177.083 204.257 179.295 206.861C180.927 202.301 183.286 198.551 187.859 196.394C191.234 194.81 195.103 194.641 198.603 195.924C206.496 198.843 208.495 204.691 209.018 212.296C219.559 211.006 228.067 214.602 234.629 222.939C236.433 221.353 238.855 218.99 240.692 217.667C246.708 213.333 254.18 211.141 261.591 211.665C266.647 212.022 271.753 213.717 276.124 216.264C277.88 217.287 279.57 218.585 281.367 219.638C280.209 213.571 278.703 208.305 282.5 202.755C282.808 202.306 283.127 201.864 283.458 201.432C280.628 202.246 277.77 202.062 274.803 202.711C259.917 203.095 245.602 203.853 230.616 202.937C225.177 202.604 219.492 201.532 213.967 201.135C208.573 200.033 207.706 198.599 205.9 193.616C205.292 192.742 200.986 190.885 199.705 190.278C189.464 187.918 184.172 190.433 176.957 197.563C175.311 196.679 174.433 196.263 172.619 195.761C171.999 195.59 168.348 194.748 168.082 194.585C167.015 194.499 165.553 194.51 164.454 194.484C155.87 195.335 150.134 200.069 147.06 208.029C141.435 206.199 137.426 205.846 131.547 205.733C129.752 205.851 127.177 206.234 125.436 206.625C125.89 201.152 126.351 195.679 127.351 190.274C127.753 188.102 128.108 185.923 128.418 183.735C109.115 181.166 98.8214 174.245 91.1636 156.905C89.3383 152.772 87.6586 150.501 92.246 147.935C87.9066 142.739 84.4525 135.627 86.5389 128.765C88.8325 121.222 99.5859 114.739 105.895 121.684C107 122.9 107.607 124.247 108.33 125.7C108.701 125.527 109.076 125.363 109.455 125.208C111.787 124.268 114.322 124.653 115.247 127.339C116.904 132.155 114.96 135.982 112.924 140.253L117.534 139.901C118.948 142.651 119.793 146.41 121.059 149.493C128.283 146.804 134.559 147.219 140.677 142.346C137.405 140.691 134.301 138.722 131.41 136.467C124.74 131.277 120.406 124.708 119.345 116.219C117.107 115.627 115.898 115.381 113.882 114.12C106.815 109.749 104.677 100.487 109.159 93.4817C111.306 90.1259 114.375 88.914 118.07 88.1651C117.562 85.3343 117.672 80.6158 117.818 77.7538C113.872 76.5422 106.442 72.2244 107.477 67.4228C108.289 63.6543 115.887 58.564 118.975 56.5331ZM158.293 41.1933C157.699 40.5504 157.142 39.7596 156.348 39.5647C156.092 40.3352 157.051 41.1885 157.576 41.7391L158.293 41.1933Z"/><path fill="#8DB7D5" d="M142.546 148.5C143.094 147.854 143.81 147.312 144.469 146.773C145.761 153.73 147.613 164.923 150.505 171.262C153.321 170.505 161.174 166.453 164.446 164.963C164.125 167.533 164.219 175.608 164.255 178.515C164.31 182.917 163.994 190.344 164.454 194.484C155.87 195.335 150.134 200.069 147.06 208.029C141.435 206.199 137.426 205.846 131.547 205.733C132.263 183.212 137.966 169.782 142.546 148.5Z"/><path fill="#8DB7D5" d="M192.764 145.652C193.634 145.862 193.341 145.664 193.861 146.394C194.146 147.882 193.749 149.884 193.717 151.518C193.659 154.318 193.863 157.118 194.328 159.88C195.706 167.902 197.764 176.146 198.965 184.248C199.131 185.364 199.754 189.309 199.705 190.278C189.464 187.918 184.172 190.433 176.957 197.563C175.311 196.679 174.433 196.263 172.619 195.761C171.999 195.59 168.348 194.748 168.082 194.585C169.371 193.799 167.77 176.623 168.81 174.137C168.925 173.86 170.23 173.864 170.769 172.832C170.561 171.297 169.565 170.656 168.413 169.688C169.314 167.954 170.155 167.056 171.438 165.65C176.105 168.554 179.387 169.771 184.681 171.16C188.128 165.85 191.598 152.059 192.764 145.652Z"/><path fill="#588CB5" d="M192.764 145.652L193.047 145.157C193.963 144.982 195.052 145.409 195.989 145.68C196.694 150.12 197.536 154.537 198.515 158.925C199.897 164.95 206.747 189.766 205.9 193.616C205.292 192.742 200.986 190.885 199.705 190.278C199.754 189.309 199.131 185.364 198.965 184.248C197.764 176.146 195.706 167.902 194.328 159.88C193.863 157.118 193.659 154.318 193.717 151.518C193.749 149.884 194.146 147.882 193.861 146.394C193.341 145.664 193.634 145.862 192.764 145.652Z"/><path fill="#FCC58F" d="M202.331 66.689L202.737 66.7625C203.278 67.8405 202.428 73.2791 203.048 74.8091C206.423 83.1357 209.328 89.7502 208.723 99.056C208.676 99.7856 209.184 100.868 209.912 101.269C214.518 103.804 213.564 93.7362 217.859 93.4027C224.608 92.6867 227.363 101.36 223.655 106.092C221.268 109.14 219.429 109.72 215.798 110.333C215.175 109.506 213.972 107.462 212.935 107.636C210.712 110.054 209.507 121.31 204.906 126.115C198.77 132.523 193.224 136.467 184.811 139.483C172.219 143.996 159.014 144.934 146.673 139.17C140.422 136.46 134.182 132.75 129.632 127.564C123.295 120.438 124.128 111.277 123.859 102.565C123.616 94.7268 124.998 88.1844 125.559 80.5801C131.309 79.7838 132.722 79.3939 138.146 77.3887C137.88 77.9938 137.624 78.6028 137.376 79.2155C137.025 80.1025 136.956 80.3782 137.302 81.1826L137.759 81.2589C139.835 80.3389 147.728 77.7392 148.416 77.0956L148.433 76.5213C148.063 75.6194 147.151 74.9192 146.409 74.241C148.516 74.2486 150.157 74.2679 152.25 74.0445L152.178 77.6125C159.441 77.549 169 73.6626 174.91 69.5781L173.187 74.7079C179.49 73.3492 185.939 72.3682 192.115 70.6251C195.539 69.6584 199.042 68.0966 202.331 66.689Z"/><path fill="#0F1C41" d="M181.195 111.985C183.162 112.806 182.412 115.302 182.104 117.044C180.503 126.086 174.657 137.755 163.574 135.35C158.893 134.334 155.454 130.905 152.967 127.005C151.66 124.45 147.667 114.881 149.376 112.453C150.666 112.384 151.99 113.922 153.082 114.691C155.75 116.546 158.81 117.759 162.023 118.235C170.193 119.439 175.01 116.587 181.195 111.985Z"/><path fill="#E04A6E" d="M162.905 128.087C166.583 127.729 168.977 128.126 172.481 129.124C171.302 130.489 171.006 130.843 169.559 131.941C167.694 132.514 160.371 132.499 161.105 129.372C161.68 128.586 162.043 128.484 162.905 128.087Z"/><path fill="#0F1C41" d="M173.3 107.793C172.202 115.11 154.825 115.943 152.748 107.965C149.575 95.7721 168.964 88.8513 173.167 102.177C173.609 102.996 173.755 103.254 174.021 104.183L173.3 107.793Z"/><path fill="#F88428" d="M173.3 107.793C169.096 109.109 160.296 112.536 157.334 107.6C156.614 106.411 156.419 104.977 156.797 103.639C157.813 99.9051 161.737 97.8456 165.482 98.474C168.472 98.9757 170.506 101.571 173.167 102.177C173.609 102.996 173.755 103.254 174.021 104.183L173.3 107.793Z"/><path fill="#0F1C41" d="M143.037 86.4904C148.853 87.998 148.398 95.9668 147.026 100.56C146.415 102.606 145.142 103.832 143.227 104.689C137.972 104.274 136.312 89.4168 143.037 86.4904Z"/><path fill="#0F1C41" d="M186.943 86.4425C193.026 87.5717 192.62 99.9221 189.212 103.445C188.626 104.051 188.142 104.494 187.479 105.008C182.075 103.668 182.175 95.2784 183.275 91.0065C183.845 88.7935 184.954 87.485 186.943 86.4425Z"/><path fill="#F88428" d="M132.726 106.291C134.72 106.151 136.478 106 138.316 106.891C141.608 108.486 140.21 111.077 137.616 112.314C135.634 112.704 134.239 112.482 132.304 112.163C130.094 110.165 129.197 107.341 132.726 106.291Z"/><path fill="#F88428" d="M194.44 106.292C201.209 105.86 202.692 111.633 196.898 112.527C195.836 112.528 194.693 112.478 193.624 112.451C191.528 111.089 191.099 110.599 189.978 108.341C191.532 107.24 192.608 106.759 194.44 106.292Z"/><path fill="#0F1C41" d="M184.44 74.0161C190.281 73.6756 194.76 80.1643 192.313 81.6186L191.373 81.3422C187.392 78.5687 186.48 78.6997 181.663 78.6694C182.313 76.2887 182.376 75.3509 184.44 74.0161Z"/><path fill="#F88428" d="M233.422 137.597C240.747 138.03 248.075 138.602 255.405 138.928C264.779 139.344 274.117 139.222 283.489 139.354C285.108 157.001 283.244 178.399 279.75 195.922C279.614 196.604 279.256 196.65 278.69 196.895C275.39 197.394 270.318 197.596 266.962 197.76C257.918 198.207 248.861 198.342 239.808 198.166C243.487 193.222 244.56 188.717 244.619 182.666C244.684 175.998 239.203 174.64 233.773 174.816C233.268 163.261 232.981 149.087 233.422 137.597Z"/><path fill="#0F1C41" d="M259.8 158.125C260.916 157.38 262.076 156.96 263.434 156.946C264.995 156.932 266.495 157.544 267.601 158.645C268.69 159.723 269.289 161.2 269.258 162.732C269.192 166.222 265.953 168.752 263.585 171.007C262.042 172.322 261.174 172.96 259.381 173.904C253.662 171.459 244.959 161.706 253.659 157.062C256.586 156.843 257.122 157.111 259.8 158.125Z"/><path fill="#FEFDFD" d="M263.341 159.708C264.94 159.931 266.76 161.278 266.273 163.073C265.387 166.34 262.101 168.682 259.438 170.478C258.21 169.56 256.837 168.24 255.682 167.191C254.863 166.51 254.247 165.882 253.658 164.961C252.255 162.772 253.382 159.286 256.432 160.24C257.875 160.691 258.644 162.353 259.36 163.626C260.729 161.751 261.377 160.917 263.341 159.708Z"/><path fill="#FDC005" d="M192.915 203.569L193.166 203.565C203.239 203.442 200.765 217.138 200.675 224.145C204.337 221.336 208.376 220.095 213.011 220.293C230.247 221.031 237.631 242.949 229.395 256.358C227.734 259.062 226.203 260.791 223.85 262.919C216.102 268.985 208.167 268.427 200.317 263.241C198.959 264.638 197.218 266.154 195.316 266.506C186.559 268.13 187.184 259.601 187.233 253.907C187.281 248.414 187.278 243.475 187.278 238.331L187.246 221.318C187.242 217.504 187.179 213.754 187.474 209.947C187.761 206.231 189.281 204.399 192.915 203.569Z"/><path fill="#0F1C41" d="M207.76 233.57C212.924 233.15 216.641 234.778 218.567 239.972C219.59 242.743 219.458 245.808 218.201 248.481C216.903 251.238 214.803 252.914 211.997 253.952C198.623 255.455 196.646 237.528 207.76 233.57Z"/><path fill="#FEFDFD" d="M41.1037 220.54C68.929 217.764 73.5139 260.775 47.8118 266.791C41.7447 268.211 37.8195 266.17 32.9333 262.978C32.7876 265.65 32.8001 268.382 32.7811 271.062C32.7513 276.699 31.2279 284.309 23.3485 281.202C18.5915 279.326 19.7134 272.062 19.7226 267.591L19.7484 253.665C19.7613 244.964 19.5274 236.005 19.8421 227.344C20.1076 220.04 28.2209 219.353 32.6302 224.86C34.3692 222.458 38.2866 221.127 41.1037 220.54Z"/><path fill="#0F1C41" d="M40.0209 233.524C45.117 233.288 48.7577 234.731 50.696 239.881C51.7414 242.707 51.6311 245.831 50.389 248.576C49.106 251.379 47.2246 252.842 44.4294 253.908C33.2583 256.594 27.4916 238.963 40.0209 233.524Z"/><path fill="#FEFDFD" d="M257.272 220.519C270.092 219.26 281.516 228.604 282.823 241.419C284.13 254.234 274.828 265.693 262.018 267.047C249.141 268.408 237.609 259.046 236.295 246.165C234.982 233.283 244.386 221.786 257.272 220.519Z"/><path fill="#0F1C41" d="M257.311 233.554C262.627 233.048 266.73 234.996 268.642 240.28C269.621 242.998 269.461 245.996 268.199 248.594C266.901 251.232 264.756 252.961 261.998 253.895C259.94 254.436 257.758 254.247 255.824 253.361C247.686 249.678 247.885 237.006 257.311 233.554Z"/><path fill="#FEFDFD" d="M88.1311 220.554C100.958 219.075 112.547 228.292 113.995 241.123C115.442 253.953 106.196 265.52 93.3627 266.936C80.5731 268.347 69.0543 259.14 67.6121 246.354C66.17 233.568 75.3485 222.027 88.1311 220.554Z"/><path fill="#0F1C41" d="M88.8525 233.545C90.911 233.418 92.6525 233.271 94.5543 234.272C102.905 238.667 102.127 250.743 93.1537 253.9C81.3974 256.655 75.5739 238.233 88.8525 233.545Z"/><path fill="#FEFDFD" d="M134.001 220.357C137.982 220.473 138.948 220.632 143.253 222.139C149.53 224.012 153.823 231.569 146.683 235.363C142.58 237.543 132.87 226.784 129.673 233.823C129.833 236.789 139.475 238.81 142.146 239.819C148.977 242.074 153.049 247.046 151.849 254.595C150.197 264.991 141.139 267.286 132.365 267.245C126.957 266.888 120.697 265.829 117.243 261.051C115.283 258.338 115.887 254.42 118.621 252.467C122.11 250.342 126.268 253.489 129.537 254.74C131.937 255.657 138.177 257.51 138.834 253.611C138.691 252.789 138.159 251.88 137.433 251.577C129.681 248.343 117.681 246.929 117.246 236.229C117.081 232.197 117.828 228.792 120.819 225.563C124.583 221.501 128.693 220.604 134.001 220.357Z"/><path fill="#8DB7D5" d="M124.688 52.3688C127.221 44.2116 129.096 39.0502 134.838 32.4506C141.952 24.2744 153.498 18.6105 164.305 17.9712C171.224 17.5619 180.474 19.6653 186.493 23.2512C188.425 24.4021 190.817 26.5852 192.551 28.1199C192.509 28.4102 192.455 28.7839 192.39 29.2409C193.466 32.2153 194.961 34.9524 195.79 38.0278C196.661 41.2591 196.733 44.6467 196.37 47.9585C196.252 49.0372 195.879 50.7862 194.94 51.4457C189.19 48.5652 179.923 44.6747 173.518 44.618C175.802 42.4458 177.565 40.4445 177.845 37.1637C178.174 33.6966 177.082 30.2445 174.819 27.5971C169.494 21.293 161.572 21.6994 155.674 26.6393C150.655 30.8439 150.746 39.152 155.063 43.8265C148.499 44.2672 141.33 45.7737 135.218 48.2425C132.27 49.4336 127.566 51.6477 124.688 52.3688Z"/><path fill="#FEFDFD" d="M166.227 208.811C174.06 208.708 173.063 216.343 173.014 221.768C175.395 221.75 179.114 221.463 180.997 223.108C183.408 225.214 183.497 229.804 181.326 232.1C179.492 234.039 175.431 233.693 172.983 233.722C173.011 236.31 172.641 250.326 173.491 252.754C174.186 254.74 179.885 253.436 181.967 257.891C182.698 259.462 182.765 261.263 182.151 262.884C181.401 264.853 180.362 265.605 178.541 266.443C173.73 267.763 167.52 266.505 163.863 263.022C162.046 261.278 160.755 259.058 160.139 256.615C159.211 252.971 159.774 238.698 159.656 233.963C158.903 233.85 158.212 233.719 157.47 233.556C152.29 232.418 150.724 224.869 155.701 222.339C156.995 221.681 158.226 221.71 159.641 221.642C159.75 215.937 159.001 209.842 166.227 208.811Z"/><path fill="#F88428" d="M228.479 137.614C228.659 137.654 228.773 137.776 228.945 137.902C229.139 143.48 228.904 149.773 228.887 155.416C228.912 161.915 229.03 168.414 229.241 174.91C222.359 175.081 220.154 178.32 220.735 184.921C221.125 189.353 222.011 192.937 223.441 197.142C220.357 196.805 217.602 196.504 214.539 195.958L211.129 195.376C210.524 177.01 209.233 158.484 210.513 140.063C216.243 139.084 222.673 138.376 228.479 137.614Z"/><path fill="#346696" d="M115.172 148.504C115.707 149.149 116.422 153.6 116.661 154.787C121.127 154.515 137.558 150.559 141.76 148.576C139.751 152.775 137.238 155.772 135.427 159.99C133.276 164.997 131.766 173.207 129.666 177.892C125.087 177.868 120.545 177.067 116.234 175.523C106.901 172.274 101.178 166.396 96.9076 157.521C100.092 155.517 103.517 154.378 106.823 152.74C109.655 151.337 112.289 149.878 115.172 148.504Z"/><path fill="#FEFDFD" d="M293.929 221.064C295.448 221.089 296.992 221.166 298.396 221.799C299.733 222.401 301.032 223.626 301.513 225.034C302.64 228.328 302.256 255.353 301.892 259.722C301.782 261.044 301.658 262.366 301.046 263.564C300.063 265.486 298.397 266.219 296.437 266.864C294.8 266.927 293.375 266.711 291.921 265.915C290.541 265.158 289.367 263.927 288.938 262.385C288.235 259.857 288.367 231.162 288.779 227.399C288.909 226.208 289.205 225.191 289.807 224.153C290.735 222.554 292.164 221.555 293.929 221.064Z"/><path fill="#346696" d="M158.386 47.8535C172.248 46.4301 193.937 53.3128 204 62.783C200.185 61.9063 195.912 61.4692 191.966 60.6097C183.482 58.7617 173.835 56.4137 165.226 55.5174C163.027 55.1157 159.216 55.0744 156.948 55.0054C143.161 54.5856 131.277 58.1247 118.485 62.6709C131.252 52.9901 142.251 49.0494 158.386 47.8535Z"/><path fill="#588CB5" d="M192.551 28.1199C202.631 36.7978 214.515 47.221 215.638 61.3774C215.75 62.7972 216.112 66.469 215.318 67.4828C212.276 65.9357 207.549 58.7495 203.426 56.7686C203.24 56.6794 194.678 51.1696 194.94 51.4457C195.879 50.7862 196.252 49.0372 196.37 47.9585C196.733 44.6467 196.661 41.2591 195.79 38.0278C194.961 34.9524 193.466 32.2153 192.39 29.2409C192.455 28.7839 192.509 28.4102 192.551 28.1199Z"/><path fill="#FCC58F" d="M98.2326 123.522C103.669 123.092 103.498 127.92 105.702 131.715C106.526 131.13 110.566 128.192 111.367 129.862C112.794 132.841 108.847 137.022 107.719 139.689C107.335 140.596 107.131 141.681 106.931 142.633L104.779 143.505C102.129 144.582 99.9117 145.462 97.1241 146.117C94.9677 144.047 93.2225 141.587 91.9807 138.868C88.7422 131.645 91.0852 126.527 98.2326 123.522Z"/><path fill="#F88428" d="M235.065 178.392C236.935 179.494 238.507 180.46 240.503 181.317C240.518 181.884 240.515 182.451 240.495 183.017C240.407 186.222 239.929 193.02 237.419 195.181C235.134 197.148 232.528 196.822 229.786 196.722C225.648 195.453 223.887 183.716 225.555 180.497C226.726 178.238 232.121 182.508 234.897 178.63L235.065 178.392Z"/><path fill="#FCC58F" d="M176.79 147.151C177.667 147.039 178.277 146.9 179.146 147.075C179.138 148.816 169.665 159.145 167.921 161.274C166.262 159.547 164.536 157.537 162.927 155.738C160.16 152.586 158.537 150.524 156.263 147.008C162.223 148.601 170.744 147.915 176.79 147.151Z"/><path fill="#FEFDFD" d="M294.712 203.914C298.511 203.409 302.004 206.067 302.53 209.863C303.056 213.66 300.416 217.167 296.622 217.713C292.8 218.263 289.261 215.599 288.731 211.774C288.201 207.949 290.884 204.424 294.712 203.914Z"/><path fill="#FEFDFD" d="M187.915 144.967L188.058 145.127C188.589 147.679 183.314 163.223 182.141 165.953C180.114 165.43 178.164 164.607 175.943 164.057C175.032 163.759 173.908 163.527 172.96 163.307C176.584 159.771 179.808 156.605 182.812 152.506C184.457 150.262 186.182 146.95 187.915 144.967Z"/><path fill="#FCC58F" d="M119.005 93.3122C119.672 94.0516 119.539 108.637 119.564 110.361C117.661 109.767 116.767 109.206 115.159 108.102C110.707 104.241 110.982 97.5265 116.048 94.2953C116.846 93.7865 118.083 93.5339 119.005 93.3122Z"/><path fill="#346696" d="M197.686 146.701C200.422 147.536 202.819 148.886 205.534 149.882C205.517 155.949 205.621 162.271 205.146 168.31L204.985 168.355C204.378 167.721 203.616 164.001 203.179 162.718C201.428 157.574 199.755 151.68 197.686 146.701Z"/><path fill="#FEFDFD" d="M164.006 26.086C168.284 25.485 170.646 28.1079 173.469 30.8477C170.764 31.9644 168.948 32.5689 166.741 34.5621L166.356 34.9651C165.367 35.0073 163.751 32.4582 162.018 31.4899C160.274 30.5155 159.645 30.246 157.808 29.519C159.989 27.4813 160.967 26.3489 164.006 26.086Z"/><path fill="#FEFDFD" d="M149.717 149.846C150.535 150.09 152.04 151.924 152.6 152.612C155.451 156.114 158.151 158.762 161.683 161.574L159.41 162.502L153.352 165.275C151.775 160.704 150.134 154.657 149.717 149.846Z"/><path fill="#FDC005" d="M164.672 37.2265C166.277 38.036 170.347 40.0561 171.307 41.47L170.155 43.8383C167.802 46.823 163.062 45.0297 160.566 43.1222C159.13 42.9792 158.552 42.7589 157.576 41.7391L158.293 41.1933C160.756 39.8465 162.384 38.8359 164.672 37.2265Z"/><path fill="#232025" d="M160.566 43.1222C163.824 43.2343 166.917 43.3431 170.155 43.8383C167.802 46.823 163.062 45.0297 160.566 43.1222Z"/><path fill="#232025" d="M170.914 37.0634C171.332 36.0501 172.07 34.8621 173.107 34.4172C175.186 34.8313 173.904 38.5037 173.379 39.7973C172.566 40.7241 172.417 40.9509 171.307 41.47C170.347 40.0561 166.277 38.036 164.672 37.2265C166.938 36.7167 168.819 39.7194 170.452 39.8239L170.519 39.4581C169.334 37.875 168.785 37.7851 166.969 36.8853C168.071 36.8557 168.528 36.6199 169.55 36.2193C170.063 36.4461 170.15 36.9626 170.553 37.5868L170.914 37.0634Z"/><path fill="#FEFDFD" d="M170.914 37.0634C171.332 36.0501 172.07 34.8621 173.107 34.4172C175.186 34.8313 173.904 38.5037 173.379 39.7973C172.576 39.2633 171.557 37.8627 170.914 37.0634Z"/><path fill="#FEFDFD" d="M112.999 145.001L113.087 145.402C111.745 147.221 98.163 152.751 95.3187 153.886C94.9941 153.455 95.0901 153.711 95.1778 153.049C97.2485 150.969 109.688 146.242 112.999 145.001Z"/><path fill="#FEFDFD" d="M157.906 37.5706C157.514 37.9564 157.334 37.9977 156.839 38.2107C154.875 37.6347 155.382 32.889 157.143 31.8003C158.025 31.9274 157.715 31.8539 158.55 32.5642L158.904 34.1835C159.773 34.22 161.088 34.1072 161.682 34.6118C161.493 36.5481 158.832 36.8979 157.906 37.5706Z"/><path fill="#203052" d="M158.55 32.5642L158.904 34.1835C159.773 34.22 161.088 34.1072 161.682 34.6118C161.493 36.5481 158.832 36.8979 157.906 37.5706C158.791 35.7937 158.493 34.5301 158.55 32.5642Z"/><path fill="#575348" fill-opacity="0.98823529" d="M157.576 41.7391C157.051 41.1885 156.092 40.3352 156.348 39.5647C157.142 39.7596 157.699 40.5504 158.293 41.1933L157.576 41.7391Z"/><path fill="#FDC005" d="M113.029 47.5923C112.619 49.5404 112.433 50.9503 111.278 52.6419C109.622 55.0651 107.05 56.7269 104.905 58.8008C99.9055 63.6344 99.1393 68.8683 102.911 74.7396C105.171 78.2576 108.603 79.9253 110.842 82.8393C108.76 84.5493 106.542 86.2094 104.88 88.3448C99.3618 95.4374 99.4703 104.04 102.573 112.078C96.0951 111.986 90.2434 113.618 85.4604 118.204C81.5356 121.91 79.299 127.06 79.2708 132.458C79.2068 137.4 81.0391 142.504 83.3151 146.831C83.1263 148.547 82.6015 152.824 83.1315 154.206C85.566 160.555 89.6623 168.35 93.6988 173.769C99.5466 181.619 111.685 186.967 121.1 188.976C120.46 192.648 119.965 196.344 119.616 200.055C119.41 202.394 119.283 206.279 118.883 208.388L113.012 212.511C101.953 206.43 92.6686 203.736 79.9094 207.212C74.3747 208.719 71.3455 210.869 66.5953 213.954C62.269 211.394 57.5937 207.703 52.3056 206.862C52.0671 205.328 50.8209 202.056 50.264 200.481C48.7823 196.29 47.3782 192.608 46.2949 188.293C40.6794 165.641 41.5771 141.864 48.8845 119.7C56.8433 95.9159 72.8746 73.1484 93.4618 58.6711C98.0889 55.4169 102.939 52.4929 107.978 49.9206C109.759 49.0183 111.354 48.4263 113.029 47.5923Z"/><path fill="#FDC005" d="M226.452 53.1072C232.174 54.3736 248.355 68.6747 252.838 73.5121C258.205 79.2648 263.058 85.4771 267.34 92.0774C272.769 100.592 280.632 117.352 282.744 127.075C277.551 127.261 273.153 127.903 270.61 133.085C257.812 133.758 243.599 132.682 230.78 132.667C225.874 132.661 220.803 133.845 215.899 134.021C215.926 132.216 219.858 123.494 220.875 121.626C225.279 119.938 228.65 118.347 231.993 114.897C238.807 107.865 238.584 95.4134 232.566 87.9788C231.095 86.1618 229.051 84.3386 227.343 82.7507C226.278 77.7708 227.158 69.3113 227.214 64.1642C227.257 60.1186 226.928 57.0796 226.452 53.1072Z"/><defs><linearGradient id="gradient_0" gradientUnits="userSpaceOnUse" x1="240.43579" y1="215.77811" x2="247.2854" y2="194.83846"><stop offset="0" stop-color="#FCC709"/><stop offset="1" stop-color="#ECAB22"/></linearGradient></defs><path fill="url(#gradient_0)" d="M213.967 201.135C219.492 201.532 225.177 202.604 230.616 202.937C245.602 203.853 259.917 203.095 274.803 202.711C274.619 204.758 274.518 206.811 274.5 208.867C257.981 203.019 248.721 204.662 234.969 214.943C227.702 208.714 223.632 207.554 214.104 205.591C214.017 204.22 214.009 202.53 213.967 201.135Z"/></svg>