<svg width="238" height="256" viewBox="0 0 238 256" fill="none" xmlns="http://www.w3.org/2000/svg">
<path d="M116.291 0.379557C122.441 -0.946017 136.789 1.49208 143.126 3.21225C152.059 5.65184 160.579 9.43278 168.379 14.4275C181.496 22.9953 212.584 52.8721 220.256 67.2006C232.661 90.3565 229.069 105.34 224.186 128.857C222.551 136.725 224.599 140.062 221.261 152.295C223.624 153.199 226.481 154.463 228.514 156.033C233.344 159.792 236.426 165.364 237.041 171.456C239.021 190.008 225.679 201.525 208.271 203.327C192.724 239.439 159.311 252.64 122.576 255.937C80.5388 257.092 38.6588 240.55 24.6563 197.577C-6.85874 188.792 -8.07377 151.803 20.5012 145.637C20.3962 138.59 20.5238 132.888 20.9138 125.85C3.54377 114.224 14.8988 100.357 25.5938 90.0407C31.2563 36.7619 64.3988 7.42378 116.291 0.379557Z" fill="#0B1E44"/>
<path d="M128.269 120.892C145.429 120.513 158.036 117.552 173.584 109.881L187.526 116.306C188.786 133.524 199.339 141.537 199.256 158.786C199.234 163.406 197.561 172.392 200.261 175.439C202.639 176.594 201.604 176.497 204.079 175.973C208.256 172.595 211.661 158.707 218.246 160.342C238.046 165.259 224.569 196.328 211.256 193.547C207.739 191.368 207.214 189.11 204.641 188.967C200.569 193.503 199.294 200.497 197.171 206.152C194.089 214.351 185.486 222.957 178.489 228.229C169.519 234.324 163.616 237.667 153.281 241.405C124.046 249.934 101.344 249.891 72.9262 238.059C61.4812 233.199 55.2787 228.053 46.7662 219.539C24.4912 195.061 32.3137 157.682 38.1562 127.925C41.8762 127.342 58.0087 123.613 59.9662 123.759L59.9437 126.531C65.5987 128.945 80.8162 117.568 89.2612 117.35C89.9587 119.005 89.6287 119.975 89.3812 121.758C94.0687 127.096 126.611 114.776 132.409 112.563L128.269 120.892Z" fill="#FDC28C"/>
<path d="M142.361 166.174C151.991 160.754 157.346 164.591 165.364 170.136C173.029 181.227 172.541 199.753 176.929 212.83C177.814 215.482 177.641 223.996 178.489 228.229C169.519 234.324 163.616 237.667 153.281 241.405C153.244 231.39 151.099 219.633 151.084 209.31C151.084 205.257 148.729 198.649 148.474 194.298C147.844 183.401 147.154 176.168 142.361 166.174Z" fill="#86B3D7"/>
<path d="M59.9737 168.337C67.8937 163.792 73.2038 160.622 82.1438 164.975C76.7138 172.655 76.9238 177.925 75.7913 186.892C73.7063 203.45 70.3388 221.276 72.9263 238.059C61.4813 233.199 55.2788 228.053 46.7663 219.539C46.7588 207.477 49.3838 206.16 52.2038 195.132C55.0763 183.902 53.5162 179.138 59.9737 168.337Z" fill="#86B3D7"/>
<path d="M142.361 166.174C139.234 167.683 140.096 167.85 137.246 167.393C132.956 159.118 159.034 143.431 163.354 151.655C161.201 155.478 155.276 156.501 150.836 157.865C156.514 158.628 166.346 160.075 166.414 167.538L165.364 170.136C157.346 164.591 151.991 160.754 142.361 166.174Z" fill="#0B1E44"/>
<path d="M73.9236 157.084C70.3761 155.884 63.1311 154.391 63.3486 149.893C71.6286 145.662 92.2911 159.052 86.5911 166.986C83.8311 167.002 84.8137 167.12 82.1437 164.975C73.2037 160.622 67.8936 163.792 59.9736 168.337C57.5961 159.025 67.0011 158.267 73.9236 157.084Z" fill="#0B1E44"/>
<path d="M103.286 182.472C110.689 182.234 113.089 182.173 121.811 183.73C136.909 186.426 153.949 208.202 137.014 219.643C132.506 222.686 125.081 220.07 119.711 218.202C110.719 215.244 103.331 217.653 94.2863 219.297C79.4438 221.997 75.3489 206.954 81.6639 196.252C86.8839 187.42 93.5438 184.822 103.286 182.472Z" fill="#0B1E44"/>
<path d="M111.064 206.472C117.379 206.036 128.306 207.396 129.866 214.921L128.816 215.86C125.749 216.086 123.394 214.741 120.476 213.531C111.124 210.841 106.391 212.096 97.3313 214.284C102.484 209.887 104.629 208.547 111.064 206.472Z" fill="#E84C5C"/>
<path d="M106.541 162.256C113.321 161.842 119.336 163.705 124.556 168.16C127.691 170.839 129.424 175.717 125.801 178.706L124.609 178.372C124.286 177.615 123.949 176.864 123.604 176.119C121.099 170.791 119.441 169.638 114.086 167.757L113.186 167.443C95.6738 165.802 98.1562 179.74 91.7587 177.364C88.3612 169.485 100.759 163.886 106.541 162.256Z" fill="#0D2041"/>
<path d="M140.201 125.638C143.134 127.195 150.019 134.625 150.836 138.136C143.779 135.886 138.484 134.033 140.201 125.638Z" fill="#0D2041"/>
<path d="M82.0387 128.055C83.3287 128.128 83.6812 128.599 84.7537 129.386L84.7462 130.924C82.8487 133.603 80.0362 134.998 77.2162 136.728L74.8087 136.627L74.2312 135.643C75.5212 133.333 79.8262 129.963 82.0387 128.055Z" fill="#0D2041"/>
<path d="M35.6138 83.0139C37.4888 68.3846 43.2188 53.1394 52.9388 41.9999C84.9188 5.37894 133.879 -2.07787 172.159 28.8537C204.206 57.0366 226.751 73.6614 216.604 120.67C203.561 102.366 198.356 94.9028 178.594 82.5376C161.974 72.9292 152.794 69.4514 134.321 64.9383C151.459 49.4642 147.289 24.7254 124.691 20.1561C116.764 18.5739 108.544 20.2686 101.891 24.8552C87.6938 34.5251 87.1162 49.4477 96.5212 62.771C74.9587 64.8708 54.1463 71.7882 35.6138 83.0139Z" fill="#86B3D7"/>
<path d="M172.159 28.8535C204.206 57.0364 226.751 73.6612 216.604 120.67C203.561 102.365 198.356 94.9027 178.594 82.5374C183.791 72.0221 182.419 56.3177 178.324 45.6344C176.284 40.3058 173.284 34.3666 172.159 28.8535Z" fill="#396BA0"/>
<path d="M104.149 70.1946C109.204 70.0213 114.259 70.2126 119.284 70.7662C149.389 73.83 181.399 88.4075 200.734 112.153C180.086 104.943 161.801 95.2297 140.231 89.6079C99.4987 78.3138 72.5287 82.4294 33.2662 95.3063C53.1037 78.7782 78.9412 72.0791 104.149 70.1946Z" fill="#396BA0"/>
<path d="M18.6938 155.136C21.4013 155.23 20.7188 154.837 22.7438 156.134C24.7013 161.148 24.4088 182.405 23.3963 186.691C20.7788 186.971 20.3363 186.316 17.7038 185.23C6.28128 176.905 6.15384 162.67 18.6938 155.136Z" fill="#FDC28C"/>
<path d="M115.639 25.7254C125.554 25.2393 129.724 27.3241 136.136 34.7607C131.569 36.9144 126.896 39.3353 122.359 41.5978L118.811 43.0907C113.344 42.5401 106.796 36.066 102.461 32.4103C107.366 28.5709 109.624 27.2356 115.639 25.7254Z" fill="#FEFDFE"/>
<path d="M114.851 48.7598C120.911 48.552 126.304 54.6615 131.081 58.8153C127.534 60.5032 123.611 62.5129 119.704 62.3906C109.901 61.8415 108.401 62.0298 100.114 56.7897L114.851 48.7598Z" fill="#FCB41D"/>
<path d="M137.366 39.915C139.811 42.9488 138.806 52.2353 133.796 54.0718L130.834 52.0133L123.799 46.4596L137.366 39.915Z" fill="#FEFDFE"/>
<path d="M99.3038 37.1064C102.341 39.1702 107.816 42.417 109.474 45.39L109.121 46.5873L106.271 48.0764L100.684 50.8565C97.9462 50.7245 98.9438 51.1686 97.0688 49.3172C95.9663 45.1349 97.7588 40.9804 99.3038 37.1064Z" fill="#FEFDFE"/>
</svg>
