<svg width="239" height="257" viewBox="0 0 239 257" fill="none" xmlns="http://www.w3.org/2000/svg">
<path d="M117.041 0.30033C122.489 -0.612643 133.531 0.736186 139.21 1.93648C149.513 4.12326 159.363 8.06849 168.328 13.5981C181.008 21.5305 210.855 50.4306 219.382 63.9421C232.883 85.3344 230.659 103.928 226.708 127.184C225.179 136.188 226.323 141.134 223.811 152.488C250.306 164.179 239.933 202.114 209.684 203.631C193.356 240.823 158.083 255.435 119.468 256.774C85.6178 257.877 40.2369 240.46 28.0644 206.601C27.6061 205.325 25.2976 199.157 24.2701 198.647C13.0824 193.088 3.33163 190.113 0.489126 175.674C-0.861624 168.797 0.612117 161.666 4.57737 155.889C8.74137 149.886 13.8279 147.367 20.7586 146.024C20.6559 140.198 20.4804 132.453 21.3534 126.823C20.1571 125.81 18.9939 124.759 17.8651 123.671C5.54563 111.667 15.9931 100.012 25.0074 91.0538C27.3121 70.9459 30.8904 55.8521 43.6351 39.3181C62.6484 14.6513 87.0264 4.32731 117.041 0.30033Z" fill="#0B1E44"/>
<path d="M176.769 111.119C180.872 112.891 185.094 114.957 189.155 116.864C189.849 132.89 201.187 143.676 200.267 160.068C200.006 164.738 198.876 170.409 200.946 174.645C203.334 176.599 202.348 176.352 205.037 176.542C211.488 172.568 212.579 153.574 225.026 163.308C227.96 165.602 229.539 168.874 229.914 172.547C230.46 177.812 228.883 183.079 225.531 187.176C222.837 190.476 218.645 193.376 214.272 193.865C212.095 194.109 209.108 190.869 207.206 189.279C203.993 189.857 202.301 196.491 201.205 199.593C185.295 244.641 125.91 254.9 85.6561 243.498C67.8571 238.485 46.7761 224.772 38.5711 208.223C27.8071 186.513 33.8176 151.492 37.8489 128.606C43.0404 128.24 57.6849 124.815 60.7636 125.097C60.2326 126.82 60.0894 127.342 59.8096 129.11L61.0239 129.692C65.5906 129.192 77.5261 125.359 81.1576 122.26C81.9286 121.602 81.5986 121.554 81.7359 120.036C83.7286 119.407 86.9319 119.219 88.9014 120.191C89.9409 120.703 89.9116 122.747 90.3061 124.45C100.346 127.887 125.091 117.555 134.675 113.318C133.268 115.978 131.754 119.488 130.461 122.279C146.547 122.147 162.389 118.33 176.769 111.119Z" fill="#FDC28C"/>
<path d="M95.5224 200.477C100.031 200.088 106.797 202.41 109.351 202.046C124.641 199.862 154.168 198.289 144.779 223.261C143.535 226.571 137.606 228.656 134.253 229.537C127.718 229.773 120.791 228.15 113.636 228.021C105.021 227.941 83.5824 231.913 80.7759 219.742C78.1786 208.478 86.3221 202.628 95.5224 200.477Z" fill="#0B1E44"/>
<path d="M122.973 205.18L124.167 205.481C124.912 207.205 124.151 221.252 124.086 224.315C116.965 223.076 110.234 223.327 103.082 223.664L101.918 223.109C101.097 218.503 101.047 210.192 100.873 205.262C110.545 206.526 113.522 206.26 122.973 205.18Z" fill="#FEFDFE"/>
<path d="M128.17 205.066C137.701 207.522 146.319 212.249 138.861 222.705C123.96 230.227 128.121 215.159 128.17 205.066Z" fill="#FEFDFE"/>
<path d="M94.6664 205.525L96.1349 205.649C98.5731 208.226 98.6069 219.745 96.5287 223.473C93.7807 224.616 93.4417 224.036 90.2032 223.542C81.4207 216.28 84.8039 208.931 94.6664 205.525Z" fill="#FEFDFE"/>
<path d="M106.785 162.183C115.915 161.407 125.886 164.473 128.489 174.322C129.513 178.205 128.851 182.34 126.664 185.708C123.202 191.095 118.166 192.798 112.321 194.145C84.1388 195.402 81.9826 168.917 106.785 162.183Z" fill="#0B1E44"/>
<path d="M106.643 167.418C112.778 167.073 119.759 167.203 122.956 173.71C124.016 175.904 124.103 178.444 123.195 180.705C121.234 185.624 117.345 187.174 112.897 188.904C92.2559 190.053 89.4066 174.556 106.643 167.418Z" fill="#F87F2E"/>
<path d="M72.0262 146.17C86.7652 146.088 85.722 171.275 75.339 179.558C60.0435 179.166 61.7392 154.476 72.0262 146.17Z" fill="#0B1E44"/>
<path d="M151.534 147.577C165.249 150.365 164.329 175.375 153.475 182.079C139.474 179.733 139.789 155.286 151.534 147.577Z" fill="#0B1E44"/>
<path d="M145.121 122.584C149.206 123.814 154.167 130.579 158.018 133.636C161.849 136.674 163.598 136.161 167.034 138.828C167.406 140.79 166.881 140.762 165.648 143.06C156.673 141.498 136.351 135.007 145.121 122.584Z" fill="#0B1E44"/>
<path d="M163.528 184.025C169.019 183.62 179.746 185.527 177.829 193.049C176.012 195.359 175.423 195.499 172.676 196.645C167.499 196.754 156.571 195.254 157.899 188.15C159.596 185.673 160.88 185.293 163.528 184.025Z" fill="#F87F2E"/>
<path d="M53.2574 181.081C58.6454 180.842 62.3879 181.452 65.8912 185.92C66.9119 191.022 63.8234 191.907 59.6189 193.467C53.9302 193.754 50.3977 193.719 46.9049 188.485C46.2374 183.598 48.9659 182.548 53.2574 181.081Z" fill="#F87F2E"/>
<path d="M81.3128 123.487C83.6378 124.036 83.8605 124.229 85.5143 125.968C86.5305 134.063 71.6071 139.265 65.2973 140.63C64.0291 140.469 63.4336 140.179 62.2366 139.739L61.6636 138.11C63.1996 135.264 71.5966 132.038 74.4533 129.843C76.7438 128.083 79.2548 125.524 81.3128 123.487Z" fill="#0D2041"/>
<path d="M35.1526 83.9713C39.6518 32.3249 97.8054 -2.38603 145.925 13.2163C157.374 16.9282 164.902 21.8816 173.896 29.4307C204.031 56.3871 228.915 75.7208 218.21 120.654C204.874 102.047 198.557 95.2473 179.234 82.8055C163.248 73.7808 153.358 69.2242 135.32 65.4568C152.111 50.9692 149.507 27.1344 127.943 20.8576C120.276 18.6048 112.025 19.5531 105.07 23.4863C88.9674 32.5695 88.1581 47.9948 96.8483 62.7824C70.2076 67.498 58.7018 69.6781 35.1526 83.9713Z" fill="#86B3D7"/>
<path d="M173.896 29.4307C204.031 56.387 228.915 75.7207 218.209 120.654C204.874 102.047 198.556 95.2472 179.234 82.8054C184.813 72.5714 184.361 58.276 180.273 47.5506C178.17 42.0337 174.857 35.0345 173.896 29.4307Z" fill="#396BA0"/>
<path d="M101.74 70.8632C134.98 66.9833 182.548 86.7873 202.951 113.265C183.172 105.716 166.531 98.5292 146.021 91.2914C99.9487 79.1182 77.1202 81.554 32.3579 96.0273C55.4122 78.6463 73.5067 73.3891 101.74 70.8632Z" fill="#396BA0"/>
<path d="M20.5133 155.149L22.404 155.605C25.02 159.131 24.8131 182.628 23.5268 187.218C21.1531 187.68 19.6726 186.57 17.3941 185.463C6.2138 175.915 5.4413 161.712 20.5133 155.149Z" fill="#FDC28C"/>
<path d="M118.282 25.724C127.299 25.5034 131.698 28.6542 137.537 35.042C132.426 37.1538 126.433 40.1117 121.337 42.477L119.279 43.2797C115.118 42.4073 107.148 35.4073 103.488 32.4599C109.284 28.1553 111.215 27.2611 118.282 25.724Z" fill="#FEFDFE"/>
<path d="M116.783 48.7284C121.589 48.6061 128.759 55.5243 132.769 58.7614C127.768 61.4185 125.563 62.5483 119.928 62.3607C111.269 62.2422 108.277 61.5108 101.279 56.6916C105.876 54.0615 111.961 51.1643 116.783 48.7284Z" fill="#FCB41D"/>
<path d="M139.034 39.8687C141.764 44.6428 138.608 51.0734 136.537 55.4567L130.607 50.7508L124.838 46.5145C129.73 44.423 134.261 42.1987 139.034 39.8687Z" fill="#FEFDFE"/>
<path d="M100.203 37.0481C103.123 38.88 108.886 43.5732 111.852 45.8418L107.463 48.3249C105.571 49.3046 103.734 50.1553 101.807 51.051C99.1724 50.8132 100.125 51.2716 98.298 49.4772C97.0395 45.511 98.874 40.8583 100.203 37.0481Z" fill="#FEFDFE"/>
</svg>
