<svg width="246" height="264" viewBox="0 0 246 264" fill="none" xmlns="http://www.w3.org/2000/svg">
<path d="M124.624 0.0949074C132.435 -0.399688 142.589 1.10945 150.193 2.98199C158.975 5.16847 167.358 8.72299 175.036 13.5152C189.169 22.3633 220.563 52.183 229.244 66.9563C243.339 90.9427 239.117 108.829 234.011 133.526C232.529 140.693 234.054 144.996 231.134 156.743C240.178 161.08 245.67 167.904 245.931 178.236C246.16 186.278 243.129 194.072 237.526 199.845C231.18 206.391 224.839 208.384 216.052 208.562C199.354 246.059 162.497 262.717 123.142 263.318C81.1957 263.438 35.8859 245.681 25.0154 200.888C-7.13332 192.028 -8.12859 154.185 21.0689 147.891C21.0487 141.691 21.5167 136.227 22.0064 130.056C5.52741 117.925 16.1429 103.637 27.5392 93.2983C32.1134 38.0128 70.8344 5.296 124.624 0.0949074Z" fill="#0B1E44"/>
<path d="M183.982 115.534C187.714 117.006 192.549 119.35 196.309 121.03C197.614 136.418 203.437 140.729 206.87 155.211C208.818 163.428 205.093 171.941 207.061 178.859C208.53 180.674 208.748 180.83 211.009 181.401C215.554 180.297 225.097 151.59 234.835 171.221C237.4 176.389 237.844 181.076 235.671 186.569C233.581 191.782 229.523 195.962 224.374 198.202C216.311 201.653 218.11 195.834 213.391 194.004C209.185 195.851 205.296 213.613 201.258 218.73C168.601 260.125 106.488 264.328 63.4619 238.602C41.8259 224.021 32.2387 208.55 33.1394 181.814C33.7109 164.867 35.8657 149.882 39.2557 133.256C45.2325 132.876 58.6162 129.662 62.3122 129.96C62.1712 131.795 61.8232 133.019 61.3927 134.812L62.1427 135.828C66.3967 135.682 78.7942 131.658 83.3827 130.255C84.882 129.796 86.9475 125.163 89.328 124.906C91.5735 124.665 91.9447 123.908 93.6615 125.015C93.3075 127.144 93.165 128.044 93.1267 130.188L94.3515 130.954C109.732 131.229 124.171 125.606 138.212 120.041L134.482 128.434C140.767 128.262 147.913 127.483 154.259 126.921C152.296 129.296 149.682 131.33 151.507 134.266C159.154 135.226 164.995 141.127 171.701 143.78C172.291 144.014 172.723 143.266 173.335 142.644C174.929 133.775 165.136 128.295 158.09 126.022C168.651 122.656 174.226 120.684 183.982 115.534Z" fill="#FDC28C"/>
<path d="M85.3311 198.896C89.4351 200.121 96.0022 206.841 104.872 208.484C125.695 212.339 129.433 206.422 146.643 200.469C147.459 200.187 147.81 201.128 148.446 202.024C149.379 208.767 144.851 218.979 141.877 225.057C139.089 229.672 135.31 233.94 130.643 236.71C124.706 240.285 117.571 241.288 110.878 239.487C95.6759 235.478 81.3284 213.772 85.3311 198.896Z" fill="#0B1E44"/>
<path d="M115.333 225.684C123.625 225.3 125.568 225.617 133.469 228.267C129.264 231.967 127.018 233.096 121.823 234.884C117.04 235.697 109.504 235.568 107.041 230.703L107.848 228.956C109.991 227.102 112.626 226.52 115.333 225.684Z" fill="#E84C5C"/>
<path d="M106.772 165.734C116.344 164.791 127.143 166.123 130.871 176.671C132.185 180.301 131.984 184.308 130.314 187.79C127.091 194.373 121.796 196.257 115.335 198.244C86.0723 202.189 81.6226 174.198 106.772 165.734Z" fill="#0D2041"/>
<path d="M109.268 170.926C127.976 170.088 132.592 185.873 113.75 193.265C92.3018 194.221 91.473 177.918 109.268 170.926Z" fill="#F87F2E"/>
<path d="M72.5214 148.142C86.9034 150.497 86.1391 175.141 73.4566 182.019C59.3829 178.172 60.5671 155.295 72.5214 148.142Z" fill="#0B1E44"/>
<path d="M168.026 156.014C170.24 157.197 169.436 156.357 170.519 158.623C169.403 161.877 160.734 164.167 155.417 167.653C161.566 167.806 172.645 169.298 172.634 177.325L171.365 178.43C168.353 178.226 167.888 177.215 165.079 175.272C154.028 170.963 150.061 177.18 144.293 174.123L143.894 172.801C146.885 164.243 159.487 157.644 168.026 156.014Z" fill="#0B1E44"/>
<path d="M168.4 188.218C169.853 188.142 173.915 187.837 175.147 188.157C183.342 190.279 189.223 195.444 179.181 200.982C173.938 200.757 163.148 199.739 163.574 192.679C165.065 190.13 165.93 189.761 168.4 188.218Z" fill="#F87F2E"/>
<path d="M55.4319 183.677C56.2884 183.826 57.1426 183.985 57.9946 184.154C67.8474 186.116 70.4416 192.309 59.7691 196.499C53.8681 196.508 50.0926 196.443 46.9366 190.702C46.8046 185.043 50.6971 184.558 55.4319 183.677Z" fill="#F87F2E"/>
<path d="M37.3096 86.6808C37.9373 82.8518 38.5613 78.7018 39.5926 74.9727C56.5861 13.5547 134.468 -12.2413 182.585 31.1665C216.676 59.0635 236.906 78.7843 226.745 125.831C212.936 106.523 206.696 99.8585 187.148 86.3597C169.71 76.2825 160.925 72.5128 141.452 67.9254C158.56 52.3261 156.518 27.2385 133.279 21.4748C125.072 19.4172 116.384 20.7172 109.138 25.087C93.0991 34.8169 92.7106 50.8025 101.961 65.5534C79.0726 67.5263 56.9476 74.7566 37.3096 86.6808Z" fill="#86B3D7"/>
<path d="M182.585 31.1665C216.676 59.0636 236.906 78.7844 226.745 125.831C212.936 106.523 206.696 99.8585 187.148 86.3597C199.715 62.3509 181.439 38.7344 182.585 31.1665Z" fill="#396BA0"/>
<path d="M101.986 73.6092C142.523 70.6767 184.977 85.8071 210.98 117.82C194.057 112.307 173.48 102.205 154.439 95.6638C108.638 81.9677 78.3939 83.9407 33.9436 99.5775C53.3604 84.0292 77.4579 76.0405 101.986 73.6092Z" fill="#396BA0"/>
<path d="M122.053 26.9022C123.123 26.8456 124.195 26.8198 125.267 26.8248C130.021 26.8545 143.314 30.3423 142.787 36.412C140.321 38.6971 131.767 42.2575 128.275 43.8658L125.344 44.9656C120.368 44.559 112.479 37.16 108.357 33.7916C113.369 29.9687 116.004 28.5815 122.053 26.9022Z" fill="#FEFDFE"/>
<path d="M19.9373 157.156C22.2285 157.357 21.7838 156.993 23.4188 158.158C25.5165 164.432 24.2588 183.18 24.2543 191.095L17.7563 188.106C6.3473 178.969 5.63254 164.296 19.9373 157.156Z" fill="#FDC28C"/>
<path d="M123.545 49.9409C127.174 51.241 135.265 58.349 138.569 61.0864C131.132 65.3092 129.774 65.8245 121.445 64.9453C114.806 65.3069 110.836 62.3895 106.021 58.598C111.804 55.5965 117.647 52.7106 123.545 49.9409Z" fill="#FCB41D"/>
<path d="M144.711 41.731C145.392 42.0153 145.496 42.3131 146.071 42.9328C146.782 47.4001 146.792 53.4563 142.715 56.2823C140.006 56.5066 140.23 55.8929 137.581 53.7842L130.99 48.5629C135.6 46.3603 140.175 44.0835 144.711 41.731Z" fill="#FEFDFE"/>
<path d="M105.016 38.5093C108.426 40.642 113.727 45.0239 117.06 47.6165L111.619 50.4537C109.781 51.4694 107.918 52.4402 106.033 53.3644C103.378 53.1791 104.356 53.6255 102.501 51.8048C101.542 47.5227 103.447 42.4725 105.016 38.5093Z" fill="#FEFDFE"/>
</svg>
